<svg xmlns="http://www.w3.org/2000/svg" viewBox="0 0 60 40" width="60" height="40">
  <clipPath id="clip">
    <rect width="60" height="40"/>
  </clipPath>
  <g clip-path="url(#clip)">
    <!-- Red stripes -->
    <rect width="60" height="40" fill="#B22234"/>
    <rect y="3.08" width="60" height="3.08" fill="#FFFFFF"/>
    <rect y="9.23" width="60" height="3.08" fill="#FFFFFF"/>
    <rect y="15.38" width="60" height="3.08" fill="#FFFFFF"/>
    <rect y="21.54" width="60" height="3.08" fill="#FFFFFF"/>
    <rect y="27.69" width="60" height="3.08" fill="#FFFFFF"/>
    <rect y="33.85" width="60" height="3.08" fill="#FFFFFF"/>
    
    <!-- Blue canton -->
    <rect width="24" height="21.54" fill="#3C3B6E"/>
    
    <!-- Stars (simplified - using circles for better rendering) -->
    <g fill="#FFFFFF">
      <circle cx="2" cy="2" r="0.8"/>
      <circle cx="6" cy="2" r="0.8"/>
      <circle cx="10" cy="2" r="0.8"/>
      <circle cx="14" cy="2" r="0.8"/>
      <circle cx="18" cy="2" r="0.8"/>
      <circle cx="22" cy="2" r="0.8"/>
      
      <circle cx="4" cy="4.5" r="0.8"/>
      <circle cx="8" cy="4.5" r="0.8"/>
      <circle cx="12" cy="4.5" r="0.8"/>
      <circle cx="16" cy="4.5" r="0.8"/>
      <circle cx="20" cy="4.5" r="0.8"/>
      
      <circle cx="2" cy="7" r="0.8"/>
      <circle cx="6" cy="7" r="0.8"/>
      <circle cx="10" cy="7" r="0.8"/>
      <circle cx="14" cy="7" r="0.8"/>
      <circle cx="18" cy="7" r="0.8"/>
      <circle cx="22" cy="7" r="0.8"/>
      
      <circle cx="4" cy="9.5" r="0.8"/>
      <circle cx="8" cy="9.5" r="0.8"/>
      <circle cx="12" cy="9.5" r="0.8"/>
      <circle cx="16" cy="9.5" r="0.8"/>
      <circle cx="20" cy="9.5" r="0.8"/>
      
      <circle cx="2" cy="12" r="0.8"/>
      <circle cx="6" cy="12" r="0.8"/>
      <circle cx="10" cy="12" r="0.8"/>
      <circle cx="14" cy="12" r="0.8"/>
      <circle cx="18" cy="12" r="0.8"/>
      <circle cx="22" cy="12" r="0.8"/>
      
      <circle cx="4" cy="14.5" r="0.8"/>
      <circle cx="8" cy="14.5" r="0.8"/>
      <circle cx="12" cy="14.5" r="0.8"/>
      <circle cx="16" cy="14.5" r="0.8"/>
      <circle cx="20" cy="14.5" r="0.8"/>
      
      <circle cx="2" cy="17" r="0.8"/>
      <circle cx="6" cy="17" r="0.8"/>
      <circle cx="10" cy="17" r="0.8"/>
      <circle cx="14" cy="17" r="0.8"/>
      <circle cx="18" cy="17" r="0.8"/>
      <circle cx="22" cy="17" r="0.8"/>
      
      <circle cx="4" cy="19.5" r="0.8"/>
      <circle cx="8" cy="19.5" r="0.8"/>
      <circle cx="12" cy="19.5" r="0.8"/>
      <circle cx="16" cy="19.5" r="0.8"/>
      <circle cx="20" cy="19.5" r="0.8"/>
    </g>
  </g>
</svg>